<svg width="198" height="34" viewBox="0 0 198 34" fill="none" xmlns="http://www.w3.org/2000/svg">
<path d="M19.8281 7.82812C19.1927 8.84896 18.151 11.6667 16.7031 16.2812C17.0469 16.3021 17.5573 16.3125 18.2344 16.3125C20.3177 16.3125 22.0729 15.599 23.5 14.1719C24.9375 12.7448 25.6562 10.8906 25.6562 8.60938C25.6562 5.27604 23.651 3.60938 19.6406 3.60938C18.0573 3.60938 16.526 3.72396 15.0469 3.95312C13.5781 4.18229 12.4167 4.43229 11.5625 4.70312C10.7083 4.97396 9.92188 5.22396 9.20312 5.45312C8.48438 5.68229 8.01042 5.79688 7.78125 5.79688C7.26042 5.79688 7 5.60938 7 5.23438C7 4.85938 7.35417 4.47917 8.0625 4.09375C8.78125 3.69792 9.59896 3.31771 10.5156 2.95312C11.4323 2.57812 12.5677 2.1875 13.9219 1.78125C16.9948 0.84375 20.3229 0.375 23.9062 0.375C28.6354 0.375 31.8542 1.42708 33.5625 3.53125C34.4896 4.66667 34.9531 6.03646 34.9531 7.64062C34.9531 10.6823 33.6875 13.1927 31.1562 15.1719C29 16.8594 26.1979 17.9323 22.75 18.3906C21.7396 18.526 20.5833 18.5938 19.2812 18.5938C17.9896 18.5938 16.9167 18.5052 16.0625 18.3281C15.625 19.7344 15.2812 20.8073 15.0312 21.5469C14.7917 22.2865 14.5208 22.8802 14.2188 23.3281C13.9167 23.776 13.5938 24.1302 13.25 24.3906C12.9167 24.651 12.4896 24.849 11.9688 24.9844C11.1458 25.2031 10.0469 25.3125 8.67188 25.3125C7.30729 25.3125 6.01042 25.1615 4.78125 24.8594C3.55208 24.5573 2.57812 24.1875 1.85938 23.75C1.13021 23.3125 0.765625 22.8854 0.765625 22.4688C0.765625 22.2292 0.869792 22.0365 1.07812 21.8906C1.28646 21.7448 1.52604 21.6719 1.79688 21.6719C2.75521 21.6719 3.46354 21.5208 3.92188 21.2188C4.39062 20.9062 4.83854 20.3333 5.26562 19.5C5.70312 18.6667 6.13542 17.6979 6.5625 16.5938C7 15.4792 7.40625 14.4479 7.78125 13.5C8.15625 12.5417 8.58333 11.5677 9.0625 10.5781C10.1146 8.41146 11.3594 6.98958 12.7969 6.3125C13.4948 5.97917 14.4062 5.72396 15.5312 5.54688C16.6562 5.35938 17.5365 5.26562 18.1719 5.26562C18.8177 5.26562 19.2344 5.27604 19.4219 5.29688C19.6198 5.30729 19.8177 5.33854 20.0156 5.39062C20.4115 5.49479 20.6094 5.71354 20.6094 6.04688C20.6094 6.27604 20.5625 6.48958 20.4688 6.6875C20.3854 6.875 20.1719 7.25521 19.8281 7.82812ZM46.2656 21.6562C48.224 21.6562 49.8594 20.1562 51.1719 17.1562C51.776 15.7812 52.0781 14.6667 52.0781 13.8125C52.0781 12.9583 51.9323 12.3698 51.6406 12.0469C51.3594 11.724 50.7969 11.5625 49.9531 11.5625C49.1198 11.5625 48.2135 11.9531 47.2344 12.7344C46.2656 13.5052 45.4844 14.4792 44.8906 15.6562C44.2969 16.8333 44 17.8958 44 18.8438C44 19.7812 44.2083 20.4844 44.625 20.9531C45.0417 21.4219 45.5885 21.6562 46.2656 21.6562ZM54.3906 8.42188L61.5469 8.75C61.8177 8.75 62.0208 8.83333 62.1562 9C62.2917 9.15625 62.3594 9.33333 62.3594 9.53125C62.3594 10.2917 62.0417 11.5052 61.4062 13.1719C60.7812 14.8281 60.151 16.474 59.5156 18.1094C58.8906 19.7344 58.5781 20.8125 58.5781 21.3438C58.5781 21.8646 58.6562 22.1979 58.8125 22.3438C58.9792 22.4896 59.2917 22.5625 59.75 22.5625C60.2083 22.5625 61.0417 22.3438 62.25 21.9062C63.4688 21.4583 64.2917 21.1198 64.7188 20.8906C65.1562 20.6615 65.4896 20.5469 65.7188 20.5469C66.125 20.5469 66.3281 20.7292 66.3281 21.0938C66.3281 21.8646 64.7656 22.875 61.6406 24.125C60.5885 24.5521 59.3177 24.9062 57.8281 25.1875C56.349 25.4792 54.8438 25.625 53.3125 25.625C50.7604 25.625 49.224 24.8125 48.7031 23.1875C47.0781 24.8125 44.8906 25.625 42.1406 25.625C40.2552 25.625 38.6615 25.1719 37.3594 24.2656C35.9427 23.276 35.2344 21.7188 35.2344 19.5938C35.2344 17.3542 35.8958 15.2917 37.2188 13.4062C38.6667 11.3125 40.6042 9.86979 43.0312 9.07812C44.375 8.64062 45.8177 8.42188 47.3594 8.42188C49.724 8.42188 51.5625 9.00521 52.875 10.1719C52.8854 10.1094 52.8906 10.0104 52.8906 9.875L52.875 9.20312C52.875 8.68229 53.3802 8.42188 54.3906 8.42188ZM68.9688 8.92188L76.0625 8.75C76.3333 8.75 76.5365 8.83333 76.6719 9C76.8073 9.15625 76.875 9.33854 76.875 9.54688C76.875 9.74479 76.8385 10.0938 76.7656 10.5938C76.6927 11.0833 76.6562 11.4427 76.6562 11.6719C78.5729 9.50521 81.1302 8.42188 84.3281 8.42188C86.276 8.42188 87.8073 8.92188 88.9219 9.92188C90.0469 10.9115 90.6094 12.3177 90.6094 14.1406C90.6094 17.6823 89.2188 20.5781 86.4375 22.8281C89.6667 22.599 92.1458 22 93.875 21.0312C94.4479 20.7083 94.8698 20.5469 95.1406 20.5469C95.4948 20.5469 95.6719 20.7396 95.6719 21.125C95.6719 21.3958 95.4792 21.6719 95.0938 21.9531C93.3229 23.1927 91.0417 24.1094 88.25 24.7031C85.4688 25.2969 82.474 25.5938 79.2656 25.5938C78.8698 25.6146 78.5729 25.625 78.375 25.625C77.2708 25.625 76.1667 25.4583 75.0625 25.125C73.9583 24.7917 73.0417 24.3229 72.3125 23.7188C71.5938 25.9167 71.2344 28.4531 71.2344 31.3281L71.25 31.7812C71.25 32.3021 70.7448 32.5625 69.7344 32.5625L62.4688 32.75C62.2188 32.75 62.0208 32.6719 61.875 32.5156C61.7292 32.3698 61.6562 32.2031 61.6562 32.0156C61.6562 30.2344 62.6302 26.7812 64.5781 21.6562C66.526 16.5208 67.5 13.0833 67.5 11.3438L67.4375 10.0469C67.4375 9.66146 67.5312 9.38021 67.7188 9.20312C67.9167 9.01562 68.3333 8.92188 68.9688 8.92188ZM79.7188 12.3906C77.7604 12.3906 76.125 13.8906 74.8125 16.8906C74.2083 18.2656 73.9062 19.3802 73.9062 20.2344C73.9062 21.0885 74.0469 21.6771 74.3281 22C74.6198 22.3229 75.1823 22.4844 76.0156 22.4844C76.8594 22.4844 77.7656 22.099 78.7344 21.3281C79.7135 20.5469 80.5 19.5677 81.0938 18.3906C81.6875 17.2135 81.9844 16.1562 81.9844 15.2188C81.9844 14.2708 81.776 13.5625 81.3594 13.0938C80.9427 12.625 80.3958 12.3906 79.7188 12.3906ZM124.438 20.5469C124.823 20.5469 125.016 20.724 125.016 21.0781C125.016 21.776 123.682 22.6823 121.016 23.7969C119.349 24.4948 117.516 25.0573 115.516 25.4844C115.266 26.1823 115.042 26.7969 114.844 27.3281C114.646 27.8698 114.281 28.474 113.75 29.1406C113.229 29.8073 112.609 30.3646 111.891 30.8125C111.182 31.2604 110.417 31.6354 109.594 31.9375C108.781 32.25 107.865 32.4896 106.844 32.6562C105 32.9688 102.839 33.125 100.359 33.125C97.8906 33.125 95.9896 32.849 94.6562 32.2969C93.3229 31.7448 92.6562 30.9479 92.6562 29.9062C92.6562 29.3021 92.9167 28.7552 93.4375 28.2656C93.9583 27.776 94.6354 27.3646 95.4688 27.0312C96.3125 26.6979 97.3854 26.3958 98.6875 26.125C100.906 25.6771 103.693 25.3073 107.047 25.0156C107.328 24.0885 107.531 23.3125 107.656 22.6875C104.625 23.8125 101.844 24.375 99.3125 24.375C95.9271 24.375 94.2344 23.2552 94.2344 21.0156C94.2344 19.4427 94.7031 17.5 95.6406 15.1875C96.5885 12.8646 97.0625 11.2344 97.0625 10.2969L97.0469 9.70312C97.0469 9.18229 97.5521 8.92188 98.5625 8.92188L102.203 8.98438L105.5 8.75C105.771 8.75 105.974 8.83333 106.109 9C106.245 9.15625 106.312 9.4375 106.312 9.84375C106.312 10.2396 106.156 10.9375 105.844 11.9375C105.542 12.9271 105.208 13.8542 104.844 14.7188C103.854 17.0417 103.359 18.6042 103.359 19.4062C103.359 19.8646 103.526 20.2135 103.859 20.4531C104.193 20.6927 104.63 20.8125 105.172 20.8125C106.318 20.8125 107.385 20.4948 108.375 19.8594C109.49 16.849 110.516 13.5 111.453 9.8125C111.547 9.42708 111.823 9.23438 112.281 9.23438C113.792 9.23438 115.411 9.15625 117.141 9C118.87 8.83333 119.859 8.75 120.109 8.75C120.37 8.75 120.573 8.8125 120.719 8.9375C120.865 9.0625 120.938 9.18229 120.938 9.29688C120.938 9.74479 119.38 14.4375 116.266 23.375C117.807 23.0104 119.24 22.5781 120.562 22.0781C121.896 21.5677 122.802 21.1875 123.281 20.9375C123.771 20.6771 124.156 20.5469 124.438 20.5469ZM105.703 28.9531C106.005 28.1927 106.266 27.474 106.484 26.7969C101.797 27.3906 99.4531 28.474 99.4531 30.0469C99.4531 30.4531 99.6615 30.8333 100.078 31.1875C100.505 31.5521 100.932 31.7344 101.359 31.7344C102.307 31.7344 103.193 31.4896 104.016 31C104.839 30.5208 105.401 29.8385 105.703 28.9531ZM128 8.92188L135.406 8.75C135.677 8.75 135.88 8.83333 136.016 9C136.151 9.15625 136.219 9.30208 136.219 9.4375C136.219 9.57292 136.182 9.79688 136.109 10.1094C136.036 10.4219 135.943 10.8021 135.828 11.25C135.714 11.6875 135.641 11.9688 135.609 12.0938C136.422 11.125 137.438 10.2708 138.656 9.53125C139.875 8.79167 140.948 8.42188 141.875 8.42188C143.844 8.42188 144.828 8.84896 144.828 9.70312C144.828 10.5469 144.562 11.5625 144.031 12.75C143.5 13.9271 143 14.7031 142.531 15.0781C142.302 15.2448 142.021 15.3281 141.688 15.3281C141.365 15.3281 141.062 15.224 140.781 15.0156C139.521 14.0781 138.146 13.6094 136.656 13.6094C136.083 13.6094 135.583 13.651 135.156 13.7344C134.75 15.1302 134.104 17.1823 133.219 19.8906C132.333 22.5885 131.844 24.0938 131.75 24.4062C131.594 24.8958 131.302 25.1406 130.875 25.1406C129.365 25.1406 127.745 25.2188 126.016 25.375C124.286 25.5417 123.292 25.625 123.031 25.625C122.781 25.625 122.583 25.5521 122.438 25.4062C122.302 25.2708 122.234 25.1094 122.234 24.9219C122.234 24.724 122.453 24.026 122.891 22.8281C123.339 21.6198 123.828 20.3229 124.359 18.9375C124.901 17.5521 125.391 16.0312 125.828 14.375C126.276 12.7188 126.5 11.3594 126.5 10.2969L126.484 9.70312C126.484 9.18229 126.99 8.92188 128 8.92188ZM147.266 23.9531C145.307 22.776 144.328 20.9896 144.328 18.5938C144.328 17.3438 144.583 16.1719 145.094 15.0781C145.615 13.974 146.323 13.0208 147.219 12.2188C148.125 11.4167 149.177 10.7292 150.375 10.1562C152.771 9 155.516 8.42188 158.609 8.42188C164.693 8.42188 167.979 10.349 168.469 14.2031C169.198 14.4427 169.948 14.5625 170.719 14.5625C171.5 14.5625 172.151 14.5052 172.672 14.3906C173.193 14.276 173.682 14.1042 174.141 13.875C174.609 13.6458 174.943 13.5312 175.141 13.5312C175.536 13.5312 175.734 13.724 175.734 14.1094C175.734 14.4948 175.427 14.8958 174.812 15.3125C173.656 16.1042 172.125 16.5 170.219 16.5C169.5 16.5 168.917 16.4635 168.469 16.3906C168.135 19.0156 166.781 21.1979 164.406 22.9375C163.271 23.7708 161.875 24.4271 160.219 24.9062C158.573 25.3854 156.865 25.625 155.094 25.625C153.333 25.625 151.823 25.4844 150.562 25.2031C149.302 24.9323 148.203 24.5156 147.266 23.9531ZM152.938 19.9688C152.938 21.8958 153.641 22.8594 155.047 22.8594C155.943 22.8594 156.776 22.3698 157.547 21.3906C158.328 20.4115 158.932 19.1979 159.359 17.75C159.797 16.3021 160.016 14.8281 160.016 13.3281C160.016 11.8177 159.49 11.0625 158.438 11.0625C157.521 11.0625 156.63 11.4948 155.766 12.3594C154.911 13.224 154.224 14.349 153.703 15.7344C153.193 17.1094 152.938 18.5208 152.938 19.9688ZM181.375 25.6094C181.115 25.6198 180.729 25.625 180.219 25.625C177.823 25.625 175.562 25.401 173.438 24.9531C171.323 24.5052 170.073 23.9844 169.688 23.3906C169.562 23.2031 169.5 22.9688 169.5 22.6875C169.5 22.4062 169.833 21.9583 170.5 21.3438C171.167 20.7188 171.625 20.4062 171.875 20.4062C172.125 20.4062 172.38 20.5 172.641 20.6875C172.911 20.8646 173.208 21.0833 173.531 21.3438C173.854 21.6042 174.214 21.8646 174.609 22.125C175.557 22.75 176.698 23.0625 178.031 23.0625C178.562 23.0625 178.99 22.9271 179.312 22.6562C179.646 22.3854 179.812 22.0469 179.812 21.6406C179.812 21.224 179.672 20.8646 179.391 20.5625C179.12 20.2604 178.76 20 178.312 19.7812C177.875 19.5521 177.391 19.3281 176.859 19.1094C176.328 18.8802 175.792 18.6354 175.25 18.375C174.719 18.1042 174.229 17.8125 173.781 17.5C172.792 16.8021 172.297 15.9375 172.297 14.9062C172.297 13.8646 172.609 12.9635 173.234 12.2031C173.87 11.4427 174.667 10.8333 175.625 10.375C176.583 9.91667 177.667 9.53125 178.875 9.21875C181 8.6875 183.005 8.42188 184.891 8.42188C186.786 8.42188 188.547 8.52083 190.172 8.71875C191.807 8.90625 192.932 9.1875 193.547 9.5625C193.714 9.65625 193.797 9.90625 193.797 10.3125C193.797 10.7083 193.656 11.2812 193.375 12.0312C193.094 12.7708 192.734 13.4583 192.297 14.0938C191.87 14.7188 191.484 15.0312 191.141 15.0312C191.005 15.0312 190.891 14.974 190.797 14.8594C189.807 13.6719 188.844 12.7604 187.906 12.125C186.979 11.4792 185.969 11.1562 184.875 11.1562C184.042 11.1562 183.443 11.3281 183.078 11.6719C182.724 12.0052 182.547 12.3542 182.547 12.7188C182.547 13.0833 182.745 13.4323 183.141 13.7656C183.547 14.099 184.047 14.401 184.641 14.6719C185.245 14.9427 185.896 15.2604 186.594 15.625C187.302 15.9792 187.953 16.3438 188.547 16.7188C189.151 17.0833 189.651 17.5469 190.047 18.1094C190.453 18.6615 190.656 19.3594 190.656 20.2031C190.656 21.0469 190.349 21.8698 189.734 22.6719C192.318 22.151 194.339 21.5104 195.797 20.75C196.047 20.6146 196.26 20.5469 196.438 20.5469C196.833 20.5469 197.031 20.7448 197.031 21.1406C197.031 21.474 196.828 21.7812 196.422 22.0625C196.016 22.3333 195.344 22.6667 194.406 23.0625C193.469 23.4479 192.354 23.8385 191.062 24.2344C188.052 25.151 184.823 25.6094 181.375 25.6094Z" fill="white"/>
</svg>
