<svg width="20" height="20" viewBox="0 0 20 20" fill="none" xmlns="http://www.w3.org/2000/svg">
<path d="M13.1249 2.70833H6.87494C6.26714 2.70833 5.68425 2.94978 5.25449 3.37955C4.82471 3.80932 4.58327 4.39221 4.58327 5V16.6667C4.58243 16.7814 4.61317 16.8941 4.67213 16.9925C4.73109 17.0909 4.81599 17.1712 4.91754 17.2246C5.01909 17.2779 5.13338 17.3022 5.24786 17.295C5.36234 17.2877 5.47262 17.2491 5.5666 17.1833L9.99994 14.0917L14.4333 17.1833C14.5389 17.2552 14.6639 17.293 14.7916 17.2917C14.8924 17.2905 14.9919 17.2677 15.0833 17.225C15.1835 17.1701 15.2673 17.0893 15.3259 16.9912C15.3845 16.893 15.4158 16.781 15.4166 16.6667V5C15.4166 4.39221 15.1752 3.80932 14.7454 3.37955C14.3156 2.94978 13.7327 2.70833 13.1249 2.70833Z" fill="#D4AB9A"/>
</svg>
