<svg width="25" height="25" viewBox="0 0 25 25" fill="none" xmlns="http://www.w3.org/2000/svg">
<g clip-path="url(#clip0_433_51)">
<path d="M13.2858 1.5625C13.7173 1.5625 14.0671 1.91228 14.0671 2.34375C14.0671 2.7444 13.7655 3.07462 13.3769 3.11974L13.2858 3.125H5.46875C4.22056 3.125 3.20026 4.10072 3.12898 5.33104L3.125 5.46875V19.5312C3.125 20.7794 4.10072 21.7997 5.33104 21.871L5.46875 21.875H19.5312C20.7794 21.875 21.7997 20.8993 21.871 19.669L21.875 19.5312V11.7217C21.875 11.2902 22.2248 10.9404 22.6562 10.9404C23.0569 10.9404 23.3871 11.242 23.4322 11.6305L23.4375 11.7217V19.5312C23.4375 21.6318 21.7794 23.3452 19.7007 23.4339L19.5312 23.4375H5.46875C3.36816 23.4375 1.65483 21.7794 1.56611 19.7007L1.5625 19.5312V5.46875C1.5625 3.36816 3.22055 1.65483 5.2993 1.56611L5.46875 1.5625H13.2858ZM22.412 3.1243C23.3273 4.03959 23.3273 5.52357 22.412 6.43886L14.8471 14.0037C14.4374 14.4134 13.9418 14.7268 13.396 14.9213L10.5825 15.9237C10.1761 16.0685 9.72918 15.8564 9.58436 15.45C9.52223 15.2756 9.52404 15.0848 9.58947 14.9116L10.7359 11.8774C10.8927 11.4625 11.1359 11.0858 11.4495 10.7722L19.0974 3.1243C20.0127 2.20901 21.4967 2.20901 22.412 3.1243ZM20.2704 4.16844L20.2023 4.22915L12.5544 11.877C12.4289 12.0025 12.326 12.1481 12.2497 12.3076L12.1976 12.4296L11.6478 13.8858L12.8716 13.4494C13.1445 13.3522 13.3965 13.2054 13.6152 13.0169L13.7423 12.8989L21.3071 5.33401C21.6122 5.02891 21.6122 4.53425 21.3071 4.22915C21.0238 3.94585 20.5771 3.92561 20.2704 4.16844Z" fill="black"/>
</g>
<defs>
<clipPath id="clip0_433_51">
<rect width="25" height="25" fill="white"/>
</clipPath>
</defs>
</svg>
