<svg width="16" height="16" viewBox="0 0 16 16" fill="none" xmlns="http://www.w3.org/2000/svg">
<g clip-path="url(#clip0_698_135)">
<path fill-rule="evenodd" clip-rule="evenodd" d="M8 13C7.416 13 6.852 12.932 6.31 12.8165L3.956 14.2315L3.9875 11.912C2.183 10.827 1 9.033 1 7C1 3.6865 4.134 1 8 1C11.866 1 15 3.6865 15 7C15 10.314 11.866 13 8 13ZM8 0C3.582 0 0 3.1345 0 7C0 9.2095 1.1725 11.177 3 12.4595V16L6.5045 13.8735C6.9895 13.9535 7.4885 14 8 14C12.418 14 16 10.866 16 7C16 3.1345 12.418 0 8 0Z" fill="#89868C"/>
</g>
<defs>
<clipPath id="clip0_698_135">
<rect width="16" height="16" fill="white"/>
</clipPath>
</defs>
</svg>
