<svg width="28" height="28" viewBox="0 0 28 28" fill="none" xmlns="http://www.w3.org/2000/svg">
<circle cx="14" cy="14" r="14" fill="#89868C"/>
<circle cx="14" cy="14" r="10.5" stroke="white"/>
<path fill-rule="evenodd" clip-rule="evenodd" d="M14.5 9.05556C14.5 9.44626 14.2989 9.78739 14 9.9699V10.1111H17.5C18.3285 10.1111 19 10.82 19 11.6944V18.0278C19 18.9023 18.3285 19.6111 17.5 19.6111H9.5C8.67158 19.6111 8 18.9023 8 18.0278V11.6944C8 10.82 8.67158 10.1111 9.5 10.1111H13V9.9699C12.7011 9.78739 12.5 9.44626 12.5 9.05556C12.5 8.47259 12.9477 8 13.5 8C14.0523 8 14.5 8.47259 14.5 9.05556ZM9.5 11.1667H13H14H17.5C17.7761 11.1667 18 11.403 18 11.6944V18.0278C18 18.3193 17.7761 18.5556 17.5 18.5556H9.5C9.22386 18.5556 9 18.3193 9 18.0278V11.6944C9 11.403 9.22386 11.1667 9.5 11.1667ZM15 14.0694C15 13.6322 15.3358 13.2778 15.75 13.2778C16.1642 13.2778 16.5 13.6322 16.5 14.0694C16.5 14.5067 16.1642 14.8611 15.75 14.8611C15.3358 14.8611 15 14.5067 15 14.0694ZM15.75 12.2222C14.7835 12.2222 14 13.0492 14 14.0694C14 15.0896 14.7835 15.9167 15.75 15.9167C16.7165 15.9167 17.5 15.0896 17.5 14.0694C17.5 13.0492 16.7165 12.2222 15.75 12.2222ZM11.25 13.2778C10.8358 13.2778 10.5 13.6322 10.5 14.0694C10.5 14.5067 10.8358 14.8611 11.25 14.8611C11.6642 14.8611 12 14.5067 12 14.0694C12 13.6322 11.6642 13.2778 11.25 13.2778ZM9.5 14.0694C9.5 13.0492 10.2835 12.2222 11.25 12.2222C12.2165 12.2222 13 13.0492 13 14.0694C13 15.0896 12.2165 15.9167 11.25 15.9167C10.2835 15.9167 9.5 15.0896 9.5 14.0694ZM12.9472 16.7362C12.8237 16.4755 12.5234 16.3698 12.2764 16.5002C12.0294 16.6305 11.9293 16.9475 12.0528 17.2082C12.3403 17.8151 12.9911 18.0278 13.5 18.0278C14.0089 18.0278 14.6597 17.8151 14.9472 17.2082C15.0707 16.9475 14.9706 16.6305 14.7236 16.5002C14.4766 16.3698 14.1763 16.4755 14.0528 16.7362C14.007 16.833 13.8244 16.9722 13.5 16.9722C13.1756 16.9722 12.993 16.833 12.9472 16.7362Z" fill="white"/>
</svg>
