<svg width="97" height="97" viewBox="0 0 97 97" fill="none" xmlns="http://www.w3.org/2000/svg">
<circle cx="48.5" cy="48.5" r="47" stroke="#D4AB9A" stroke-width="3"/>
<path fill-rule="evenodd" clip-rule="evenodd" d="M53.1666 28.1667C53.1666 29.7089 52.3287 31.0555 51.0832 31.7759V32.3333H65.6666C69.1185 32.3333 71.9166 35.1316 71.9166 38.5833V63.5833C71.9166 67.0352 69.1185 69.8333 65.6666 69.8333H32.3333C28.8815 69.8333 26.0833 67.0352 26.0833 63.5833V38.5833C26.0833 35.1316 28.8815 32.3333 32.3333 32.3333H46.9166V31.7759C45.6712 31.0555 44.8332 29.7089 44.8332 28.1667C44.8332 25.8655 46.6987 24 48.9999 24C51.3012 24 53.1666 25.8655 53.1666 28.1667ZM32.3333 36.5H46.9166H51.0832H65.6666C66.8172 36.5 67.7499 37.4327 67.7499 38.5833V63.5833C67.7499 64.734 66.8172 65.6667 65.6666 65.6667H32.3333C31.1827 65.6667 30.2499 64.734 30.2499 63.5833V38.5833C30.2499 37.4327 31.1827 36.5 32.3333 36.5ZM55.2499 47.9583C55.2499 46.2325 56.6491 44.8333 58.3749 44.8333C60.1007 44.8333 61.4999 46.2325 61.4999 47.9583C61.4999 49.6842 60.1007 51.0833 58.3749 51.0833C56.6491 51.0833 55.2499 49.6842 55.2499 47.9583ZM58.3749 40.6667C54.3478 40.6667 51.0832 43.9312 51.0832 47.9583C51.0832 51.9854 54.3478 55.25 58.3749 55.25C62.402 55.25 65.6666 51.9854 65.6666 47.9583C65.6666 43.9312 62.402 40.6667 58.3749 40.6667ZM39.6249 44.8333C37.899 44.8333 36.4999 46.2325 36.4999 47.9583C36.4999 49.6842 37.899 51.0833 39.6249 51.0833C41.3508 51.0833 42.7499 49.6842 42.7499 47.9583C42.7499 46.2325 41.3508 44.8333 39.6249 44.8333ZM32.3333 47.9583C32.3333 43.9312 35.5978 40.6667 39.6249 40.6667C43.652 40.6667 46.9166 43.9312 46.9166 47.9583C46.9166 51.9854 43.652 55.25 39.6249 55.25C35.5978 55.25 32.3333 51.9854 32.3333 47.9583ZM46.6966 58.485C46.182 57.4558 44.9307 57.0387 43.9016 57.5533C42.8724 58.0679 42.4553 59.3192 42.9699 60.3483C44.1677 62.744 46.8795 63.5833 48.9999 63.5833C51.1203 63.5833 53.8322 62.744 55.0299 60.3483C55.5445 59.3192 55.1274 58.0679 54.0982 57.5533C53.0691 57.0387 51.8178 57.4558 51.3032 58.485C51.1122 58.8671 50.3516 59.4167 48.9999 59.4167C47.6482 59.4167 46.8876 58.8671 46.6966 58.485Z" fill="#D4AB9A"/>
</svg>
