<svg width="17" height="20" viewBox="0 0 17 20" fill="none" xmlns="http://www.w3.org/2000/svg">
<path d="M13.75 7.5H13.125V5.115C13.125 2.24687 11.05 0 8.10188 0C5.14188 0 3.125 2.29437 3.125 5.115V7.5H2.5C1.12125 7.5 0 8.62125 0 10V17.5C0 18.8787 1.12125 20 2.5 20H13.75C15.1287 20 16.25 18.8787 16.25 17.5V10C16.25 8.62125 15.1287 7.5 13.75 7.5ZM4.375 5.115C4.375 2.98437 5.83125 1.25 8.10188 1.25C10.3494 1.25 11.875 2.9475 11.875 5.115V7.5H4.375V5.115ZM15 17.5C15 18.1887 14.4388 18.75 13.75 18.75H2.5C1.81062 18.75 1.25 18.1887 1.25 17.5V10C1.25 9.31125 1.81062 8.75 2.5 8.75H13.75C14.4388 8.75 15 9.31125 15 10V17.5ZM8.125 11.25C7.435 11.25 6.875 11.8094 6.875 12.5C6.875 12.9613 7.12813 13.36 7.5 13.5769V15.625C7.5 15.97 7.78 16.25 8.125 16.25C8.47 16.25 8.75 15.97 8.75 15.625V13.5769C9.12187 13.3606 9.375 12.9613 9.375 12.5C9.375 11.8094 8.81563 11.25 8.125 11.25Z" fill="#89868C"/>
</svg>
