<svg width="125" height="22" viewBox="0 0 125 22" fill="none" xmlns="http://www.w3.org/2000/svg">
<path d="M12.1426 5.26758C11.7454 5.9056 11.0944 7.66667 10.1895 10.5508C10.4043 10.5638 10.7233 10.5703 11.1465 10.5703C12.4486 10.5703 13.5456 10.1243 14.4375 9.23242C15.3359 8.34049 15.7852 7.18164 15.7852 5.75586C15.7852 3.67253 14.5319 2.63086 12.0254 2.63086C11.0358 2.63086 10.0788 2.70247 9.1543 2.8457C8.23633 2.98893 7.51042 3.14518 6.97656 3.31445C6.44271 3.48372 5.95117 3.63997 5.50195 3.7832C5.05273 3.92643 4.75651 3.99805 4.61328 3.99805C4.28776 3.99805 4.125 3.88086 4.125 3.64648C4.125 3.41211 4.34635 3.17448 4.78906 2.93359C5.23828 2.6862 5.74935 2.44857 6.32227 2.2207C6.89518 1.98633 7.60482 1.74219 8.45117 1.48828C10.3717 0.902344 12.4518 0.609375 14.6914 0.609375C17.6471 0.609375 19.6589 1.26693 20.7266 2.58203C21.306 3.29167 21.5957 4.14779 21.5957 5.15039C21.5957 7.05143 20.8047 8.62044 19.2227 9.85742C17.875 10.9121 16.1237 11.5827 13.9688 11.8691C13.3372 11.9538 12.6146 11.9961 11.8008 11.9961C10.9935 11.9961 10.3229 11.9408 9.78906 11.8301C9.51562 12.709 9.30078 13.3796 9.14453 13.8418C8.99479 14.304 8.82552 14.6751 8.63672 14.9551C8.44792 15.235 8.24609 15.4564 8.03125 15.6191C7.82292 15.7819 7.55599 15.9056 7.23047 15.9902C6.71615 16.127 6.0293 16.1953 5.16992 16.1953C4.31706 16.1953 3.50651 16.1009 2.73828 15.9121C1.97005 15.7233 1.36133 15.4922 0.912109 15.2188C0.45638 14.9453 0.228516 14.6784 0.228516 14.418C0.228516 14.2682 0.29362 14.1478 0.423828 14.0566C0.554036 13.9655 0.703776 13.9199 0.873047 13.9199C1.47201 13.9199 1.91471 13.8255 2.20117 13.6367C2.49414 13.4414 2.77409 13.0833 3.04102 12.5625C3.31445 12.0417 3.58464 11.4362 3.85156 10.7461C4.125 10.0495 4.37891 9.40495 4.61328 8.8125C4.84766 8.21354 5.11458 7.60482 5.41406 6.98633C6.07161 5.63216 6.84961 4.74349 7.74805 4.32031C8.18424 4.11198 8.75391 3.95247 9.45703 3.8418C10.1602 3.72461 10.7103 3.66602 11.1074 3.66602C11.5111 3.66602 11.7715 3.67253 11.8887 3.68555C12.0124 3.69206 12.1361 3.71159 12.2598 3.74414C12.5072 3.80924 12.6309 3.94596 12.6309 4.1543C12.6309 4.29753 12.6016 4.43099 12.543 4.55469C12.4909 4.67188 12.3574 4.90951 12.1426 5.26758ZM28.666 13.9102C29.89 13.9102 30.9121 12.9727 31.7324 11.0977C32.11 10.2383 32.2988 9.54167 32.2988 9.00781C32.2988 8.47396 32.2077 8.10612 32.0254 7.9043C31.8496 7.70247 31.498 7.60156 30.9707 7.60156C30.4499 7.60156 29.8835 7.8457 29.2715 8.33398C28.666 8.81576 28.1777 9.42448 27.8066 10.1602C27.4355 10.8958 27.25 11.5599 27.25 12.1523C27.25 12.7383 27.3802 13.1777 27.6406 13.4707C27.901 13.7637 28.2428 13.9102 28.666 13.9102ZM33.7441 5.63867L38.2168 5.84375C38.3861 5.84375 38.513 5.89583 38.5977 6C38.6823 6.09766 38.7246 6.20833 38.7246 6.33203C38.7246 6.80729 38.526 7.56576 38.1289 8.60742C37.7383 9.64258 37.3444 10.6712 36.9473 11.6934C36.5566 12.709 36.3613 13.3828 36.3613 13.7148C36.3613 14.0404 36.4102 14.2487 36.5078 14.3398C36.612 14.431 36.8073 14.4766 37.0938 14.4766C37.3802 14.4766 37.901 14.3398 38.6562 14.0664C39.418 13.7865 39.9323 13.5749 40.1992 13.4316C40.4727 13.2884 40.681 13.2168 40.8242 13.2168C41.0781 13.2168 41.2051 13.3307 41.2051 13.5586C41.2051 14.0404 40.2285 14.6719 38.2754 15.4531C37.6178 15.7201 36.8236 15.9414 35.8926 16.1172C34.9681 16.2995 34.0273 16.3906 33.0703 16.3906C31.4753 16.3906 30.515 15.8828 30.1895 14.8672C29.1738 15.8828 27.8066 16.3906 26.0879 16.3906C24.9095 16.3906 23.9134 16.1074 23.0996 15.541C22.2142 14.9225 21.7715 13.9492 21.7715 12.6211C21.7715 11.2214 22.1849 9.93229 23.0117 8.75391C23.9167 7.44531 25.1276 6.54362 26.6445 6.04883C27.4844 5.77539 28.3861 5.63867 29.3496 5.63867C30.8275 5.63867 31.9766 6.00326 32.7969 6.73242C32.8034 6.69336 32.8066 6.63151 32.8066 6.54688L32.7969 6.12695C32.7969 5.80143 33.1126 5.63867 33.7441 5.63867ZM42.8555 5.95117L47.2891 5.84375C47.4583 5.84375 47.5853 5.89583 47.6699 6C47.7546 6.09766 47.7969 6.21159 47.7969 6.3418C47.7969 6.46549 47.7741 6.68359 47.7285 6.99609C47.6829 7.30208 47.6602 7.52669 47.6602 7.66992C48.8581 6.31576 50.4564 5.63867 52.4551 5.63867C53.6725 5.63867 54.6296 5.95117 55.3262 6.57617C56.0293 7.19466 56.3809 8.07357 56.3809 9.21289C56.3809 11.4264 55.5117 13.2363 53.7734 14.6426C55.7917 14.4993 57.3411 14.125 58.4219 13.5195C58.7799 13.3177 59.0436 13.2168 59.2129 13.2168C59.4342 13.2168 59.5449 13.3372 59.5449 13.5781C59.5449 13.7474 59.4245 13.9199 59.1836 14.0957C58.0768 14.8704 56.651 15.4434 54.9062 15.8145C53.168 16.1855 51.2962 16.3711 49.291 16.3711C49.0436 16.3841 48.8581 16.3906 48.7344 16.3906C48.0443 16.3906 47.3542 16.2865 46.6641 16.0781C45.974 15.8698 45.401 15.5768 44.9453 15.1992C44.4961 16.5729 44.2715 18.1582 44.2715 19.9551L44.2812 20.2383C44.2812 20.5638 43.9655 20.7266 43.334 20.7266L38.793 20.8438C38.6367 20.8438 38.513 20.7949 38.4219 20.6973C38.3307 20.6061 38.2852 20.502 38.2852 20.3848C38.2852 19.2715 38.8939 17.1133 40.1113 13.9102C41.3288 10.7005 41.9375 8.55208 41.9375 7.46484L41.8984 6.6543C41.8984 6.41341 41.957 6.23763 42.0742 6.12695C42.1979 6.00977 42.4583 5.95117 42.8555 5.95117ZM49.5742 8.11914C48.3503 8.11914 47.3281 9.05664 46.5078 10.9316C46.1302 11.791 45.9414 12.4876 45.9414 13.0215C45.9414 13.5553 46.0293 13.9232 46.2051 14.125C46.3874 14.3268 46.7389 14.4277 47.2598 14.4277C47.7871 14.4277 48.3535 14.1868 48.959 13.7051C49.571 13.2168 50.0625 12.6048 50.4336 11.8691C50.8047 11.1335 50.9902 10.4727 50.9902 9.88672C50.9902 9.29427 50.86 8.85156 50.5996 8.55859C50.3392 8.26562 49.9974 8.11914 49.5742 8.11914ZM77.5234 13.2168C77.7643 13.2168 77.8848 13.3275 77.8848 13.5488C77.8848 13.985 77.0514 14.5514 75.3848 15.248C74.3431 15.6842 73.1973 16.0358 71.9473 16.3027C71.791 16.7389 71.651 17.123 71.5273 17.4551C71.4036 17.7936 71.1758 18.1712 70.8438 18.5879C70.5182 19.0046 70.1309 19.3529 69.6816 19.6328C69.2389 19.9128 68.7604 20.1471 68.2461 20.3359C67.7383 20.5312 67.1654 20.681 66.5273 20.7852C65.375 20.9805 64.0241 21.0781 62.4746 21.0781C60.9316 21.0781 59.7435 20.9056 58.9102 20.5605C58.0768 20.2155 57.6602 19.7174 57.6602 19.0664C57.6602 18.6888 57.8229 18.347 58.1484 18.041C58.474 17.735 58.8971 17.4779 59.418 17.2695C59.9453 17.0612 60.6159 16.8724 61.4297 16.7031C62.8164 16.4232 64.5579 16.1921 66.6543 16.0098C66.8301 15.4303 66.957 14.9453 67.0352 14.5547C65.1406 15.2578 63.4023 15.6094 61.8203 15.6094C59.7044 15.6094 58.6465 14.9095 58.6465 13.5098C58.6465 12.5267 58.9395 11.3125 59.5254 9.86719C60.1178 8.41536 60.4141 7.39648 60.4141 6.81055L60.4043 6.43945C60.4043 6.11393 60.7201 5.95117 61.3516 5.95117L63.627 5.99023L65.6875 5.84375C65.8568 5.84375 65.9837 5.89583 66.0684 6C66.153 6.09766 66.1953 6.27344 66.1953 6.52734C66.1953 6.77474 66.0977 7.21094 65.9023 7.83594C65.7135 8.45443 65.5052 9.03385 65.2773 9.57422C64.6589 11.026 64.3496 12.0026 64.3496 12.5039C64.3496 12.7904 64.4538 13.0085 64.6621 13.1582C64.8704 13.3079 65.1439 13.3828 65.4824 13.3828C66.1986 13.3828 66.8659 13.1842 67.4844 12.7871C68.181 10.9056 68.8223 8.8125 69.4082 6.50781C69.4668 6.26693 69.6393 6.14648 69.9258 6.14648C70.8698 6.14648 71.8822 6.09766 72.9629 6C74.0436 5.89583 74.6621 5.84375 74.8184 5.84375C74.9811 5.84375 75.1081 5.88281 75.1992 5.96094C75.2904 6.03906 75.3359 6.11393 75.3359 6.18555C75.3359 6.46549 74.3626 9.39844 72.416 14.9844C73.3796 14.7565 74.2747 14.4863 75.1016 14.1738C75.9349 13.8548 76.5013 13.6172 76.8008 13.4609C77.1068 13.2982 77.3477 13.2168 77.5234 13.2168ZM65.8145 18.4707C66.0033 17.9954 66.166 17.5462 66.3027 17.123C63.373 17.4941 61.9082 18.1712 61.9082 19.1543C61.9082 19.4082 62.0384 19.6458 62.2988 19.8672C62.5658 20.0951 62.8327 20.209 63.0996 20.209C63.6921 20.209 64.2454 20.056 64.7598 19.75C65.2741 19.4505 65.6257 19.0241 65.8145 18.4707ZM79.75 5.95117L84.3789 5.84375C84.5482 5.84375 84.6751 5.89583 84.7598 6C84.8444 6.09766 84.8867 6.1888 84.8867 6.27344C84.8867 6.35807 84.8639 6.49805 84.8184 6.69336C84.7728 6.88867 84.7142 7.1263 84.6426 7.40625C84.571 7.67969 84.5254 7.85547 84.5059 7.93359C85.0137 7.32812 85.6484 6.79427 86.4102 6.33203C87.1719 5.86979 87.8424 5.63867 88.4219 5.63867C89.6523 5.63867 90.2676 5.9056 90.2676 6.43945C90.2676 6.9668 90.1016 7.60156 89.7695 8.34375C89.4375 9.07943 89.125 9.56445 88.832 9.79883C88.6888 9.90299 88.513 9.95508 88.3047 9.95508C88.1029 9.95508 87.9141 9.88997 87.7383 9.75977C86.9505 9.17383 86.0911 8.88086 85.1602 8.88086C84.8021 8.88086 84.4896 8.9069 84.2227 8.95898C83.9688 9.83138 83.5651 11.1139 83.0117 12.8066C82.4583 14.4928 82.1523 15.4336 82.0938 15.6289C81.9961 15.9349 81.8138 16.0879 81.5469 16.0879C80.6029 16.0879 79.5905 16.1367 78.5098 16.2344C77.429 16.3385 76.8073 16.3906 76.6445 16.3906C76.4883 16.3906 76.3646 16.3451 76.2734 16.2539C76.1888 16.1693 76.1465 16.0684 76.1465 15.9512C76.1465 15.8275 76.2832 15.3913 76.5566 14.6426C76.8366 13.8874 77.1426 13.0768 77.4746 12.2109C77.8132 11.3451 78.1191 10.3945 78.3926 9.35938C78.6725 8.32422 78.8125 7.47461 78.8125 6.81055L78.8027 6.43945C78.8027 6.11393 79.1185 5.95117 79.75 5.95117ZM93.2949 5.95117L97.709 5.84375C97.8783 5.84375 98.0052 5.89583 98.0898 6C98.1745 6.09766 98.2168 6.2474 98.2168 6.44922C98.2168 6.64453 98.0345 7.15885 97.6699 7.99219C97.3118 8.81901 96.9505 9.70117 96.5859 10.6387C96.2214 11.5697 96.0391 12.25 96.0391 12.6797C96.0391 13.487 96.4688 13.8906 97.3281 13.8906C97.7383 13.8906 98.1875 13.8385 98.6758 13.7344C98.832 13.181 99.0924 12.4486 99.457 11.5371C100.382 9.25195 100.938 7.51367 101.127 6.32227C101.16 6.08138 101.332 5.96094 101.645 5.96094C102.589 5.96094 103.581 5.94141 104.623 5.90234C105.665 5.86328 106.264 5.84375 106.42 5.84375C106.583 5.84375 106.706 5.88932 106.791 5.98047C106.882 6.0651 106.928 6.14648 106.928 6.22461C106.928 6.53711 106.726 7.19792 106.322 8.20703C105.919 9.21615 105.515 10.2611 105.111 11.3418C104.708 12.416 104.506 13.2005 104.506 13.6953C104.506 14.1901 104.724 14.4375 105.16 14.4375C105.603 14.4375 106.212 14.3203 106.986 14.0859C107.768 13.8451 108.311 13.64 108.617 13.4707C108.93 13.3014 109.132 13.2168 109.223 13.2168C109.47 13.2168 109.594 13.334 109.594 13.5684C109.594 13.8027 109.418 14.0273 109.066 14.2422C108.721 14.4505 108.301 14.6654 107.807 14.8867C107.318 15.1016 106.729 15.3294 106.039 15.5703C104.451 16.1172 102.833 16.3906 101.186 16.3906C99.5384 16.3906 98.6107 15.9479 98.4023 15.0625C97.7708 15.3229 97.2533 15.528 96.8496 15.6777C96.446 15.821 95.8861 15.974 95.1699 16.1367C94.4538 16.306 93.7962 16.3906 93.1973 16.3906C91.2832 16.3906 90.3262 15.6094 90.3262 14.0469C90.3262 13.5065 90.4303 12.8522 90.6387 12.084C90.847 11.3092 91.0781 10.6094 91.332 9.98438C92.0026 8.32422 92.3379 7.29557 92.3379 6.89844C92.3379 6.49479 92.3965 6.23763 92.5137 6.12695C92.6309 6.00977 92.8913 5.95117 93.2949 5.95117ZM114.789 16.3809C114.626 16.3874 114.385 16.3906 114.066 16.3906C112.569 16.3906 111.156 16.2507 109.828 15.9707C108.507 15.6908 107.725 15.3652 107.484 14.9941C107.406 14.877 107.367 14.7305 107.367 14.5547C107.367 14.3789 107.576 14.099 107.992 13.7148C108.409 13.3242 108.695 13.1289 108.852 13.1289C109.008 13.1289 109.167 13.1875 109.33 13.3047C109.499 13.4154 109.685 13.5521 109.887 13.7148C110.089 13.8776 110.313 14.0404 110.561 14.2031C111.153 14.5938 111.866 14.7891 112.699 14.7891C113.031 14.7891 113.298 14.7044 113.5 14.5352C113.708 14.3659 113.812 14.1543 113.812 13.9004C113.812 13.64 113.725 13.4154 113.549 13.2266C113.38 13.0378 113.155 12.875 112.875 12.7383C112.602 12.5951 112.299 12.4551 111.967 12.3184C111.635 12.1751 111.299 12.0221 110.961 11.8594C110.629 11.6901 110.323 11.5078 110.043 11.3125C109.424 10.8763 109.115 10.3359 109.115 9.69141C109.115 9.04036 109.311 8.47721 109.701 8.00195C110.098 7.52669 110.596 7.14583 111.195 6.85938C111.794 6.57292 112.471 6.33203 113.227 6.13672C114.555 5.80469 115.808 5.63867 116.986 5.63867C118.171 5.63867 119.271 5.70052 120.287 5.82422C121.309 5.94141 122.012 6.11719 122.396 6.35156C122.501 6.41016 122.553 6.56641 122.553 6.82031C122.553 7.06771 122.465 7.42578 122.289 7.89453C122.113 8.35677 121.889 8.78646 121.615 9.18359C121.348 9.57422 121.107 9.76953 120.893 9.76953C120.808 9.76953 120.736 9.73372 120.678 9.66211C120.059 8.91992 119.457 8.35026 118.871 7.95312C118.292 7.54948 117.66 7.34766 116.977 7.34766C116.456 7.34766 116.081 7.45508 115.854 7.66992C115.632 7.87826 115.521 8.09635 115.521 8.32422C115.521 8.55208 115.645 8.77018 115.893 8.97852C116.146 9.18685 116.459 9.37565 116.83 9.54492C117.208 9.71419 117.615 9.91276 118.051 10.1406C118.493 10.362 118.9 10.5898 119.271 10.8242C119.649 11.0521 119.962 11.3418 120.209 11.6934C120.463 12.0384 120.59 12.4746 120.59 13.002C120.59 13.5293 120.398 14.0436 120.014 14.5449C121.628 14.2194 122.891 13.819 123.803 13.3438C123.959 13.2591 124.092 13.2168 124.203 13.2168C124.451 13.2168 124.574 13.3405 124.574 13.5879C124.574 13.7962 124.447 13.9883 124.193 14.1641C123.939 14.3333 123.52 14.5417 122.934 14.7891C122.348 15.0299 121.651 15.2741 120.844 15.5215C118.962 16.0944 116.944 16.3809 114.789 16.3809Z" fill="url(#paint0_linear_698_83)"/>
<defs>
<linearGradient id="paint0_linear_698_83" x1="1" y1="9" x2="123" y2="9" gradientUnits="userSpaceOnUse">
<stop stop-color="#E6B9A6"/>
<stop offset="1" stop-color="#886151"/>
</linearGradient>
</defs>
</svg>
