<svg width="35" height="35" viewBox="0 0 35 35" fill="none" xmlns="http://www.w3.org/2000/svg">
<g opacity="0.7">
<path d="M32.0834 17.4998C32.0834 9.46441 25.5355 2.9165 17.5001 2.9165C9.46466 2.9165 2.91675 9.46441 2.91675 17.4998C2.91675 21.729 4.73966 25.5352 7.62716 28.204C7.62716 28.2186 7.62716 28.2186 7.61258 28.2331C7.75841 28.379 7.93341 28.4956 8.07924 28.6269C8.16674 28.6998 8.23966 28.7727 8.32716 28.8311C8.58966 29.0498 8.88133 29.254 9.15841 29.4581C9.26049 29.5311 9.34799 29.5894 9.45008 29.6623C9.72716 29.8519 10.0188 30.0269 10.3251 30.1873C10.4272 30.2456 10.5438 30.3186 10.6459 30.3769C10.9376 30.5373 11.2438 30.6831 11.5647 30.8144C11.6813 30.8727 11.798 30.9311 11.9147 30.9748C12.2355 31.1061 12.5563 31.2227 12.8772 31.3248C12.9938 31.3686 13.1105 31.4123 13.2272 31.4415C13.5772 31.5436 13.9272 31.6311 14.2772 31.7186C14.3792 31.7477 14.4813 31.7769 14.598 31.7915C15.0063 31.879 15.4147 31.9373 15.8376 31.9811C15.8959 31.9811 15.9542 31.9956 16.0126 32.0102C16.5084 32.054 17.0042 32.0831 17.5001 32.0831C17.9959 32.0831 18.4917 32.054 18.973 32.0102C19.0313 32.0102 19.0897 31.9956 19.148 31.9811C19.5709 31.9373 19.9792 31.879 20.3876 31.7915C20.4896 31.7769 20.5917 31.7331 20.7084 31.7186C21.0584 31.6311 21.423 31.5581 21.7584 31.4415C21.8751 31.3977 21.9917 31.354 22.1084 31.3248C22.4292 31.2081 22.7646 31.1061 23.0709 30.9748C23.1876 30.9311 23.3042 30.8727 23.4209 30.8144C23.7271 30.6831 24.0334 30.5373 24.3396 30.3769C24.4563 30.3186 24.5584 30.2456 24.6605 30.1873C24.9521 30.0123 25.2438 29.8519 25.5355 29.6623C25.6376 29.604 25.7251 29.5311 25.8271 29.4581C26.1188 29.254 26.3959 29.0498 26.6584 28.8311C26.7459 28.7581 26.8188 28.6852 26.9063 28.6269C27.0667 28.4956 27.2271 28.3644 27.373 28.2331C27.373 28.2186 27.373 28.2186 27.3584 28.204C30.2605 25.5352 32.0834 21.729 32.0834 17.4998ZM24.7042 24.7477C20.7521 22.0936 14.2772 22.0936 10.2959 24.7477C9.65424 25.1707 9.12924 25.6665 8.69174 26.2061C6.47508 23.9602 5.10425 20.8832 5.10425 17.4998C5.10425 10.6602 10.6605 5.104 17.5001 5.104C24.3396 5.104 29.8959 10.6602 29.8959 17.4998C29.8959 20.8832 28.5251 23.9602 26.3084 26.2061C25.8855 25.6665 25.3459 25.1707 24.7042 24.7477Z" fill="#D4AB9A"/>
<path d="M17.5 10.106C14.4812 10.106 12.0312 12.556 12.0312 15.5747C12.0312 18.5351 14.35 20.9414 17.4271 21.0289C17.4708 21.0289 17.5292 21.0289 17.5583 21.0289C17.5875 21.0289 17.6312 21.0289 17.6604 21.0289C17.675 21.0289 17.6896 21.0289 17.6896 21.0289C20.6354 20.9268 22.9542 18.5351 22.9687 15.5747C22.9687 12.556 20.5187 10.106 17.5 10.106Z" fill="#D4AB9A"/>
</g>
</svg>
