<svg width="50" height="50" viewBox="0 0 50 50" fill="none" xmlns="http://www.w3.org/2000/svg">
<path fill-rule="evenodd" clip-rule="evenodd" d="M29.1666 4.16667C29.1666 5.70892 28.3287 7.05548 27.0832 7.77592V8.33333H41.6666C45.1185 8.33333 47.9166 11.1316 47.9166 14.5833V39.5833C47.9166 43.0352 45.1185 45.8333 41.6666 45.8333H8.33325C4.88148 45.8333 2.08325 43.0352 2.08325 39.5833V14.5833C2.08325 11.1316 4.88148 8.33333 8.33325 8.33333H22.9166V7.77592C21.6712 7.05548 20.8332 5.70892 20.8332 4.16667C20.8332 1.86548 22.6987 0 24.9999 0C27.3012 0 29.1666 1.86548 29.1666 4.16667ZM8.33325 12.5H22.9166H27.0832H41.6666C42.8172 12.5 43.7499 13.4327 43.7499 14.5833V39.5833C43.7499 40.734 42.8172 41.6667 41.6666 41.6667H8.33325C7.18267 41.6667 6.24992 40.734 6.24992 39.5833V14.5833C6.24992 13.4327 7.18267 12.5 8.33325 12.5ZM31.2499 23.9583C31.2499 22.2325 32.6491 20.8333 34.3749 20.8333C36.1007 20.8333 37.4999 22.2325 37.4999 23.9583C37.4999 25.6842 36.1007 27.0833 34.3749 27.0833C32.6491 27.0833 31.2499 25.6842 31.2499 23.9583ZM34.3749 16.6667C30.3478 16.6667 27.0832 19.9312 27.0832 23.9583C27.0832 27.9854 30.3478 31.25 34.3749 31.25C38.402 31.25 41.6666 27.9854 41.6666 23.9583C41.6666 19.9312 38.402 16.6667 34.3749 16.6667ZM15.6249 20.8333C13.899 20.8333 12.4999 22.2325 12.4999 23.9583C12.4999 25.6842 13.899 27.0833 15.6249 27.0833C17.3508 27.0833 18.7499 25.6842 18.7499 23.9583C18.7499 22.2325 17.3508 20.8333 15.6249 20.8333ZM8.33325 23.9583C8.33325 19.9312 11.5978 16.6667 15.6249 16.6667C19.652 16.6667 22.9166 19.9312 22.9166 23.9583C22.9166 27.9854 19.652 31.25 15.6249 31.25C11.5978 31.25 8.33325 27.9854 8.33325 23.9583ZM22.6966 34.485C22.182 33.4558 20.9307 33.0387 19.9016 33.5533C18.8724 34.0679 18.4553 35.3192 18.9699 36.3483C20.1677 38.744 22.8795 39.5833 24.9999 39.5833C27.1203 39.5833 29.8322 38.744 31.0299 36.3483C31.5445 35.3192 31.1274 34.0679 30.0982 33.5533C29.0691 33.0387 27.8178 33.4558 27.3032 34.485C27.1122 34.8671 26.3516 35.4167 24.9999 35.4167C23.6482 35.4167 22.8876 34.8671 22.6966 34.485Z" fill="#D4AB9A"/>
</svg>
