<svg width="18" height="18" viewBox="0 0 18 18" fill="none" xmlns="http://www.w3.org/2000/svg">
<path d="M9.8625 1.80054C9.80333 1.80526 9.74568 1.82164 9.69287 1.84874C9.64006 1.87584 9.59313 1.91312 9.55479 1.95843C9.51645 2.00375 9.48745 2.0562 9.46946 2.11277C9.45148 2.16933 9.44487 2.2289 9.45 2.28804V6.26304C3.75 6.82554 0.075 10.7255 0 14.663C0 14.888 0.075 15.038 0.225 15.038C0.375 15.038 0.4875 14.9255 0.6375 14.6255C1.5375 12.6005 3.5625 11.438 9.45 11.1755V14.813C9.44487 14.8722 9.45148 14.9317 9.46946 14.9883C9.48745 15.0449 9.51645 15.0973 9.55479 15.1426C9.59313 15.188 9.64006 15.2252 9.69287 15.2523C9.74568 15.2794 9.80333 15.2958 9.8625 15.3005C9.92124 15.3039 9.97983 15.2918 10.0325 15.2654C10.0851 15.2391 10.1299 15.1995 10.1625 15.1505L16.35 8.96304C16.4422 8.85991 16.4932 8.7264 16.4932 8.58804C16.4932 8.44967 16.4422 8.31616 16.35 8.21304L10.1625 1.95054C10.1299 1.90155 10.0851 1.86194 10.0325 1.83563C9.97983 1.80932 9.92124 1.79722 9.8625 1.80054Z" fill="#89868C"/>
</svg>
