<svg width="20" height="16" viewBox="0 0 20 16" fill="none" xmlns="http://www.w3.org/2000/svg">
<path fill-rule="evenodd" clip-rule="evenodd" d="M16.3636 2.66667V0.888889H18.1818V2.66667H20V4.44444H18.1818V6.22222H16.3636V4.44444H14.5455V2.66667H16.3636ZM5.39729 2.52922C5.4617 2.44167 5.53323 2.33449 5.62445 2.18997C5.67556 2.10899 5.86206 1.80735 5.89255 1.75859C6.64617 0.553233 7.194 0 8.18182 0H12.7273V1.77778H8.18182C8.10297 1.77778 7.855 2.0282 7.44382 2.68586C7.41742 2.72807 7.22815 3.03421 7.1717 3.12364C7.05993 3.30073 6.96704 3.43989 6.87328 3.56734C6.46579 4.12125 6.05849 4.44444 5.45455 4.44444H2.72727C2.2252 4.44444 1.81818 4.84241 1.81818 5.33333V13.3333C1.81818 13.8243 2.2252 14.2222 2.72727 14.2222H17.2727C17.7748 14.2222 18.1818 13.8243 18.1818 13.3333V8H20V13.3333C20 14.8061 18.779 16 17.2727 16H2.72727C1.22104 16 0 14.8061 0 13.3333V5.33333C0 3.86057 1.22104 2.66667 2.72727 2.66667H5.28745C5.31772 2.63284 5.35482 2.58696 5.39729 2.52922ZM10 13.3333C7.48961 13.3333 5.45455 11.3435 5.45455 8.88889C5.45455 6.43429 7.48961 4.44444 10 4.44444C12.5104 4.44444 14.5455 6.43429 14.5455 8.88889C14.5455 11.3435 12.5104 13.3333 10 13.3333ZM10 11.5556C11.5062 11.5556 12.7273 10.3616 12.7273 8.88889C12.7273 7.41613 11.5062 6.22222 10 6.22222C8.49377 6.22222 7.27273 7.41613 7.27273 8.88889C7.27273 10.3616 8.49377 11.5556 10 11.5556Z" fill="white"/>
</svg>
